<svg width="28" height="28" viewBox="0 0 28 28" fill="none" xmlns="http://www.w3.org/2000/svg">
<g clip-path="url(#clip0_2002_337)">
<path d="M22.6077 14.2184H21.7639C21.7502 14.2194 21.7373 14.2252 21.7276 14.2349C21.7179 14.2446 21.7121 14.2575 21.7111 14.2712V16.9483C21.5269 17.001 21.342 17.0274 21.1314 17.0274C20.5776 17.0274 20.4458 16.8561 20.4458 16.1175V14.2712C20.4449 14.2575 20.439 14.2446 20.4293 14.2349C20.4196 14.2252 20.4067 14.2194 20.3931 14.2184H19.5499C19.5362 14.2194 19.5234 14.2252 19.5137 14.2349C19.504 14.2446 19.4981 14.2575 19.4972 14.2712V16.21C19.4972 17.4229 19.9057 17.8848 20.9468 17.8848C21.5399 17.8848 22.2121 17.7266 22.6077 17.5814C22.6207 17.5681 22.6337 17.555 22.6337 17.5417V14.2715C22.6601 14.2451 22.6337 14.2187 22.6077 14.2187V14.2184ZM4.7355 14.2318H3.8787C3.85233 14.2318 3.8393 14.2448 3.8393 14.2712C3.70746 14.7985 3.43075 15.6953 3.0616 16.6319L2.20511 14.2581C2.19177 14.2448 2.17874 14.2318 2.1654 14.2318H1.29557C1.28223 14.2318 1.2692 14.2448 1.25587 14.2581C1.24284 14.2712 1.24284 14.2845 1.25587 14.2975L2.54758 17.8321C2.43287 18.0736 2.30974 18.3111 2.17843 18.544C2.0863 18.7022 2.0072 18.8604 1.92809 19.032C1.91506 19.0453 1.91506 19.0583 1.92809 19.0717C1.94143 19.0847 1.95446 19.098 1.9678 19.098H2.90339C2.91673 19.098 2.9431 19.0847 2.9431 19.0717C3.13765 18.6917 3.31791 18.3046 3.48349 17.9112C4.0369 16.6185 4.47182 15.4053 4.80157 14.2975C4.80157 14.2845 4.80157 14.2712 4.78823 14.2581C4.76186 14.2318 4.74884 14.2318 4.7355 14.2318ZM7.80658 16.9483C7.80614 16.9414 7.80322 16.935 7.79837 16.9301C7.79352 16.9253 7.78706 16.9223 7.78021 16.9219H7.74051C7.52956 17.001 7.14738 17.0537 6.8837 17.0537C6.29089 17.0537 6.01387 16.8955 6.01387 15.999C6.01387 15.2734 6.10632 14.9437 6.8837 14.9437C7.10799 14.9437 7.30559 14.9701 7.56927 15.0492C7.59564 15.0492 7.60867 15.0492 7.622 15.0228L7.96448 14.3372V14.2975C7.96404 14.2907 7.96112 14.2842 7.95627 14.2794C7.95141 14.2745 7.94496 14.2716 7.93811 14.2712C7.57483 14.1608 7.19761 14.103 6.81794 14.0996C5.5923 14.0996 5.03857 14.68 5.03857 15.9857C5.03857 17.3044 5.5923 17.8978 6.81794 17.8978C7.12102 17.8978 7.74051 17.8321 8.03055 17.7133C8.05692 17.6999 8.06995 17.6735 8.05692 17.6472L7.80658 16.9483ZM15.833 14.2318H14.9765C14.9501 14.2318 14.9368 14.2448 14.9368 14.2712C14.8049 14.8119 14.5282 15.6953 14.1591 16.6319L13.3026 14.2581C13.2892 14.2448 13.2762 14.2318 13.2629 14.2318H12.393C12.38 14.2318 12.3667 14.2448 12.3536 14.2581C12.3403 14.2712 12.3403 14.2845 12.3536 14.2975L13.6451 17.8321C13.5303 18.0736 13.4072 18.3111 13.2759 18.544C13.1838 18.7022 13.1047 18.8604 13.0256 19.032C13.0125 19.0453 13.0125 19.0583 13.0256 19.0717C13.0389 19.0847 13.0519 19.098 13.0653 19.098H14.0009C14.0142 19.098 14.0406 19.0847 14.0406 19.0717C14.2351 18.6917 14.4154 18.3046 14.581 17.9112C15.1213 16.6185 15.5693 15.4053 15.899 14.2975C15.899 14.2845 15.899 14.2712 15.8857 14.2581C15.8593 14.2318 15.8463 14.2318 15.833 14.2318ZM18.9962 14.2184H16.5052C16.4915 14.2194 16.4786 14.2252 16.469 14.2349C16.4593 14.2446 16.4534 14.2575 16.4525 14.2712V17.7396C16.4525 17.766 16.4788 17.7924 16.5052 17.7924H17.349C17.375 17.7924 17.4017 17.766 17.4017 17.7396V15.0492H18.7061C18.7195 15.0492 18.7458 15.0361 18.7458 15.0228C18.8513 14.7855 18.9434 14.5348 19.0489 14.2845V14.2448C19.0226 14.2318 19.0095 14.2184 18.9962 14.2184Z" fill="white"/>
<path d="M5.73554 8.89029C4.52293 8.89029 4.04862 9.41765 4.04862 10.7497C4.04862 12.1081 4.52324 12.6358 5.73554 12.6358C6.96118 12.6358 7.43549 12.1081 7.43549 10.7497C7.43549 9.41765 6.96118 8.89029 5.73554 8.89029ZM5.73554 11.8708C5.18212 11.8708 5.01058 11.7256 5.01058 10.7761C5.01058 9.77408 5.19515 9.68164 5.73554 9.68164C6.28927 9.68164 6.47384 9.77377 6.47384 10.7761C6.47384 11.7126 6.3023 11.8708 5.73554 11.8708ZM10.81 11.7256C10.8095 11.7188 10.8066 11.7123 10.8018 11.7075C10.7969 11.7026 10.7904 11.6997 10.7836 11.6992H10.7439C10.5329 11.7784 10.1508 11.8311 9.8874 11.8311C9.29427 11.8311 9.01726 11.6729 9.01726 10.7764C9.01726 10.0505 9.09636 9.72104 9.8874 9.72104C10.1114 9.72104 10.3093 9.7474 10.5727 9.82651C10.599 9.82651 10.612 9.82651 10.6254 9.80014L10.9679 9.11457V9.07487C10.9674 9.06802 10.9645 9.06156 10.9597 9.05671C10.9548 9.05186 10.9483 9.04894 10.9415 9.0485C10.5783 8.93813 10.2012 8.88037 9.82163 8.87695C8.59568 8.87695 8.04195 9.45705 8.04195 10.763C8.04195 12.0814 8.59568 12.6752 9.82132 12.6752C10.1244 12.6752 10.7439 12.6091 11.0339 12.4906C11.0603 12.4773 11.0733 12.4509 11.0603 12.4245L10.81 11.7256ZM1.29395 8.99576C1.28027 8.99671 1.2674 9.00256 1.2577 9.01226C1.24801 9.02195 1.24215 9.03482 1.24121 9.0485V12.5167C1.24121 12.5433 1.26758 12.5694 1.29395 12.5694H2.13772C2.16378 12.5694 2.19045 12.5433 2.19045 12.5167V9.82651H3.49489C3.50823 9.82651 3.5346 9.81348 3.5346 9.80014C3.64007 9.56283 3.7322 9.31218 3.83767 9.06184V9.02213C3.82433 9.00879 3.8113 8.99576 3.79797 8.99576H1.29395Z" fill="white"/>
<path fill-rule="evenodd" clip-rule="evenodd" d="M26.5464 17.4234V17.3706C26.5464 17.3443 26.5464 17.3046 26.5597 17.2782C26.5991 16.7902 26.6255 16.1968 26.6518 15.5109V15.4582L26.6782 13.9813C26.6782 13.4669 26.6652 12.9656 26.6518 12.5041V12.4513L26.5597 10.6844C26.5597 10.6577 26.5597 10.6183 26.5464 10.5919V10.5392C26.5464 10.4864 26.5333 10.4467 26.5333 10.394V10.3413C26.4936 9.82694 26.4673 9.51052 26.4542 9.48416C26.4542 9.43142 26.4409 9.37869 26.4409 9.33898V9.29958C26.4297 9.21054 26.4121 9.12242 26.3882 9.0359C26.3882 9.02256 26.3882 9.00922 26.3751 8.9962C26.1512 7.92783 25.558 6.7543 24.8197 5.87051C24.53 5.52773 24.2266 5.22435 23.9105 4.98704C22.7197 4.10904 21.4834 3.29464 20.2066 2.54723C18.2693 1.39976 16.5297 0.608415 16.3057 0.502943C16.2924 0.502943 16.2924 0.489914 16.2924 0.489914C15.7783 0.265632 15.1588 0.107425 14.4869 0.0416601C14.3551 0.028321 14.2233 0.0152922 14.0914 0.0152922C13.9726 0.0152922 13.8541 0.00195312 13.7356 0.00195312H13.551C12.6415 0.0152922 11.8114 0.186528 11.1522 0.489914C11.0467 0.529621 9.29401 1.33369 7.3037 2.49449L7.2246 2.53389C5.95286 3.29401 4.71701 4.1126 3.52099 4.98704C3.02031 5.35619 2.57206 5.83081 2.16351 6.43758C2.07138 6.58276 2.07138 6.92554 2.46659 6.92554H3.4816C3.91651 6.92554 4.02198 6.66186 4.50963 6.30574C5.05002 5.91022 6.11746 5.11888 8.06806 3.95838C9.47828 3.12763 10.7964 2.48116 11.4289 2.17777C11.4422 2.17777 11.4552 2.16474 11.4686 2.16474C11.4686 2.16474 11.4816 2.16474 11.4816 2.15171C11.4816 2.15171 11.495 2.15171 11.495 2.13837C11.508 2.13837 11.5213 2.12534 11.5213 2.12534C11.5344 2.12534 11.5477 2.112 11.5607 2.112C11.7189 2.0329 11.8244 1.99319 11.8244 1.99319C12.2727 1.79559 12.9052 1.66375 13.5771 1.65041H13.8408C14.0387 1.65041 14.2363 1.66375 14.4209 1.69012C14.8294 1.74285 15.1986 1.82196 15.5016 1.9538C15.528 1.96683 15.5674 1.98017 15.5938 1.99319C16.8811 2.59216 18.1391 3.25231 19.3634 3.97141C20.5881 4.694 21.7757 5.47754 22.9219 6.31908C23.1722 6.50365 23.4229 6.76733 23.6602 7.05738C24.253 7.82236 24.7406 8.86436 24.8197 9.66873C24.8197 9.68207 24.8594 9.99849 24.8988 10.5392C24.8988 10.5786 24.8988 10.6049 24.9122 10.6447V10.7238C24.9122 10.7765 24.9252 10.8162 24.9252 10.8689V10.9217C24.9252 10.948 24.9252 10.9874 24.9385 11.0138C24.9385 11.0799 24.9516 11.1456 24.9516 11.2117C24.9516 11.2514 24.9516 11.2908 24.9649 11.3305V11.3569C24.9649 11.4096 24.9649 11.449 24.9779 11.5018V11.6072C25.067 13.18 25.067 14.7559 24.9779 16.3286V16.4341C24.9779 16.4868 24.9779 16.5266 24.9649 16.5793V16.6057C24.9649 16.6451 24.9649 16.6848 24.9516 16.7242C24.9516 16.7902 24.9385 16.8563 24.9385 16.9221C24.9385 16.9618 24.9385 16.9881 24.9252 17.0145V17.0673C24.9252 17.12 24.9122 17.1594 24.9122 17.2121V17.2915C24.9122 17.3309 24.9122 17.3706 24.8988 17.397C24.8594 17.9377 24.8197 18.2671 24.8197 18.2671C24.7406 19.0718 24.253 20.1135 23.6599 20.8785C23.4229 21.1819 23.1722 21.4325 22.9219 21.6168C22.9088 21.6168 22.5661 21.8808 21.9993 22.2763C19.9904 23.6702 17.8649 24.888 15.6465 25.9163L15.5938 25.9427C15.5674 25.956 15.528 25.9691 15.5016 25.9824C15.1986 26.1009 14.8294 26.1933 14.4209 26.2461C14.2363 26.2724 14.0387 26.2855 13.8408 26.2855H13.5771C12.9052 26.2724 12.2727 26.1536 11.8244 25.9427C11.8244 25.9427 11.7323 25.9033 11.5607 25.8239C11.5477 25.8108 11.5213 25.8108 11.508 25.7975C11.495 25.7845 11.4816 25.7845 11.4686 25.7711C11.4552 25.7711 11.4552 25.7581 11.4422 25.7581C11.4289 25.7581 11.4159 25.7448 11.4028 25.7448C11.3895 25.7317 11.3765 25.7317 11.3501 25.7184H11.3367C10.2181 25.1859 9.12307 24.6052 8.05472 23.9778C6.09109 22.8303 5.03668 22.026 4.49661 21.6301C4.00864 21.274 3.90317 21.0103 3.46826 21.0103H2.46659C2.07138 21.0103 2.07138 21.3534 2.16351 21.485C2.57206 22.092 3.02031 22.5667 3.52099 22.9358C3.58707 22.9886 5.19489 24.1754 7.22491 25.3756C7.33007 25.4417 7.43554 25.5075 7.55404 25.5602C9.43888 26.6416 11.06 27.3802 11.1525 27.4329C11.798 27.723 12.6415 27.8945 13.538 27.9209H13.7223C13.8411 27.9209 13.9596 27.9209 14.0781 27.9076C14.2099 27.9076 14.3418 27.8945 14.4736 27.8812C15.1458 27.8154 15.7783 27.6572 16.279 27.4329C16.279 27.4329 16.2924 27.4329 16.2924 27.4199C16.5163 27.3144 18.256 26.5098 20.1936 25.3756C21.1221 24.8258 22.0321 24.2452 22.9219 23.6347L23.8972 22.9358C24.2136 22.6985 24.5167 22.3951 24.8067 22.0523C25.545 21.1685 26.1378 19.995 26.3618 18.9267C26.3618 18.9136 26.3618 18.9003 26.3751 18.8873C26.3882 18.7948 26.4145 18.7024 26.4279 18.6236V18.5836C26.4409 18.5308 26.4409 18.4781 26.4409 18.4384C26.4409 18.412 26.4806 18.0956 26.52 17.5813V17.5285C26.5464 17.5152 26.5464 17.4628 26.5464 17.4234Z" fill="white"/>
<path d="M11.6788 14.2188H9.09541C9.06904 14.2188 9.05601 14.2321 9.04267 14.2585C8.97691 15.432 8.75294 16.6849 8.43652 17.7136C8.43652 17.7266 8.43652 17.74 8.44955 17.753C8.46289 17.7663 8.47592 17.7663 8.48926 17.7663H9.37243C9.39849 17.7663 9.41182 17.753 9.41182 17.74C9.66216 16.9489 9.86008 15.9199 9.93918 15.0495H10.7826V17.7266C10.7826 17.753 10.809 17.7793 10.8354 17.7793H11.6788C11.7052 17.7793 11.7316 17.753 11.7316 17.7266V14.2585C11.7316 14.2451 11.7052 14.2188 11.6788 14.2188Z" fill="white"/>
</g>
<defs>
<clipPath id="clip0_2002_337">
<rect width="27.9189" height="27.9189" fill="white"/>
</clipPath>
</defs>
</svg>
