<svg width="20" height="20" viewBox="0 0 20 20" fill="none" xmlns="http://www.w3.org/2000/svg">
<path d="M12.6885 0C18.7079 6.8052e-05 19.9999 1.29009 20 7.31152V12.6885C19.9999 18.7079 18.7099 19.9999 12.6885 20H7.31152C1.29209 19.9999 6.81342e-05 18.7099 0 12.6885V7.31152C6.79881e-05 1.29209 1.29009 6.82448e-05 7.31152 0H12.6885ZM10.124 2.39062C5.91198 2.39065 2.35742 5.64992 2.35742 9.98242C2.35747 11.7961 2.69268 13.0478 2.98828 14.1719C3.23648 15.0844 3.45605 15.921 3.45605 16.9102C3.56245 18.2271 5.98839 17.457 6.75488 16.4717C7.96663 17.3476 8.66403 17.5664 10.1641 17.5664C14.3109 17.5443 17.6566 14.1693 17.6426 10.0225C17.6426 5.8104 14.3397 2.39062 10.124 2.39062ZM10.2266 6.13477V6.13867C12.3522 6.26058 13.9884 8.06291 13.9053 10.1904C13.7624 12.3133 11.9466 13.9312 9.82129 13.8291C9.15594 13.7758 8.51599 13.5483 7.9668 13.1689C7.6348 13.5009 7.10248 13.9304 6.89062 13.8799C6.449 13.7631 5.93074 11.519 6.22266 9.67578C6.5767 7.4493 8.17528 6.02892 10.2266 6.13477Z" fill="white"/>
</svg>
