<svg width="20" height="20" viewBox="0 0 20 20" fill="none" xmlns="http://www.w3.org/2000/svg">
<mask id="mask0_2002_408" style="mask-type:luminance" maskUnits="userSpaceOnUse" x="0" y="0" width="20" height="20">
<path d="M20 0H0V20H20V0Z" fill="white"/>
</mask>
<g mask="url(#mask0_2002_408)">
<mask id="mask1_2002_408" style="mask-type:luminance" maskUnits="userSpaceOnUse" x="0" y="0" width="20" height="20">
<path d="M20 0H0V20H20V0Z" fill="white"/>
</mask>
<g mask="url(#mask1_2002_408)">
<path d="M0.0600586 9.57002C0.0600586 5.07002 0.0600586 2.81002 1.45006 1.41002C2.86006 0.0200196 5.11006 0.0200195 9.62006 0.0200195H10.4201C14.9201 0.0200195 17.1801 0.0200196 18.5801 1.41002C19.9701 2.80002 19.9701 5.07002 19.9701 9.57002V10.37C19.9701 14.87 19.9701 17.13 18.5801 18.53C17.1901 19.92 14.9201 19.92 10.4201 19.92H9.62006C5.12006 19.92 2.86006 19.92 1.46006 18.53C0.0600586 17.13 0.0600586 14.88 0.0600586 10.37V9.57002Z" fill="none"/>
<path d="M10.01 9.9199C10.98 9.9199 11.86 9.5199 12.49 8.8899C13.12 8.2599 13.52 7.3799 13.52 6.4099C13.52 5.4399 13.12 4.5599 12.49 3.9299C11.86 3.2999 10.98 2.8999 10.01 2.8999C9.04 2.8999 8.16 3.2999 7.53 3.9299C6.9 4.5499 6.5 5.4299 6.5 6.4099C6.5 7.3899 6.9 8.2599 7.53 8.8899C8.16 9.5199 9.05 9.9199 10.01 9.9199ZM8.89 5.2699C9.18 4.9799 9.58 4.7999 10.02 4.7999C10.47 4.7999 10.86 4.9799 11.15 5.2699C11.44 5.5599 11.62 5.9599 11.62 6.3999C11.62 6.8499 11.44 7.2399 11.15 7.5299C10.86 7.8199 10.46 7.9999 10.02 7.9999C9.57 7.9999 9.18 7.8199 8.89 7.5299C8.6 7.2399 8.42 6.8399 8.42 6.3999C8.42 5.9599 8.61 5.5599 8.89 5.2699Z" fill="#FFF"/>
<path d="M14.7503 11.3401L13.7203 9.93009C13.6603 9.85009 13.5403 9.84009 13.4703 9.91009C12.5003 10.7401 11.3003 11.2801 10.0103 11.2801C8.72029 11.2801 7.5303 10.7401 6.5503 9.91009C6.4803 9.85009 6.3603 9.86009 6.3003 9.93009L5.2703 11.3401C5.2203 11.4101 5.2303 11.5001 5.2903 11.5601C6.1603 12.2601 7.17029 12.7401 8.22029 12.9901L6.0403 16.8301C5.9803 16.9401 6.06029 17.0801 6.18029 17.0801H8.31029C8.3803 17.0801 8.44029 17.0401 8.46029 16.9701L9.9803 13.5701L11.5003 16.9701C11.5203 17.0301 11.5803 17.0801 11.6503 17.0801H13.7803C13.9103 17.0801 13.9803 16.9501 13.9203 16.8301L11.7403 12.9901C12.7903 12.7401 13.8003 12.2801 14.6703 11.5601C14.8003 11.5001 14.8103 11.4101 14.7503 11.3401Z" fill="#FFF"/>
</g>
</g>
</svg>
