<svg width="20" height="20" viewBox="0 0 20 20" fill="none" xmlns="http://www.w3.org/2000/svg">
<g clip-path="url(#clip0_2003_10)">
<mask id="mask0_2003_10" style="mask-type:luminance" maskUnits="userSpaceOnUse" x="0" y="0" width="20" height="20">
<path d="M19.9011 0H0.0991211V20H19.9011V0Z" fill="white"/>
</mask>
<g mask="url(#mask0_2003_10)">
<path fill-rule="evenodd" clip-rule="evenodd" d="M1.49109 1.40589C0.0991211 2.81178 0.0991211 5.07452 0.0991211 9.6V10.4C0.0991211 14.9255 0.0991211 17.1882 1.49109 18.5941C2.88306 20 5.1234 20 9.60407 20H10.3962C14.8768 20 17.1172 20 18.5091 18.5941C19.9011 17.1882 19.9011 14.9255 19.9011 10.4V9.6C19.9011 5.07452 19.9011 2.81178 18.5091 1.40589C17.1172 0 14.8768 0 10.3962 0H9.60407C5.1234 0 2.88306 0 1.49109 1.40589ZM3.44074 6.08338C3.54799 11.2834 6.12223 14.4084 10.6354 14.4084H10.8913V11.4334C12.5497 11.6 13.8037 12.825 14.307 14.4084H16.6503C16.0067 12.0417 14.3152 10.7334 13.2591 10.2334C14.3152 9.6167 15.8004 8.1167 16.1552 6.08338H14.0264C13.5644 7.73338 12.1949 9.23336 10.8913 9.37502V6.08338H8.76247V11.85C7.44235 11.5167 5.77571 9.90004 5.70146 6.08338H3.44074Z" fill="white"/>
</g>
</g>
<defs>
<clipPath id="clip0_2003_10">
<rect width="20" height="20" fill="white"/>
</clipPath>
</defs>
</svg>
